<?xml version="1.0" encoding="UTF-8"?>
<!-- SVG sprite: place symbols here and reference them with <use href="/icons/svg-sprite.svg#icon-name"> -->
<svg xmlns="http://www.w3.org/2000/svg" style="display: none;">

<!-- Logo -->
<symbol id="logo" viewBox="0 0 150 32">
  <path d="M6.79986 10.5614H3.32816C2.54248 10.5614 1.76932 10.3175 1.14394 9.83464C0.61125 9.42382 0.118633 8.8021 0.0184395 7.88305C-0.179442 6.06784 1.23161 6.04243 3.4676 6.04243C3.7306 6.04243 3.99445 6.05683 4.25745 6.05683H9.14271L11.544 1.67339C11.544 1.67339 12.0258 0.572239 13.9462 0.140248C14.7427 -0.0393251 15.5676 -0.0418662 16.37 0.106366C16.37 0.106366 19.5428 0.810258 18.3864 3.37849L17.1891 5.93571H26.7968C28.546 5.93571 29.5179 7.60099 28.6587 8.76906C28.637 8.79871 28.617 8.83005 28.5911 8.858C27.0114 10.5877 22.8283 10.5622 22.8283 10.5622H15.08L11.6809 17.3547C11.3403 18.0332 11.0881 18.7557 10.9512 19.5045C10.6907 20.9292 10.7358 22.8918 12.6244 23.7126C15.7505 25.0704 19.7073 20.9123 19.7073 20.9123L29.4686 11.9218C30.2868 11.1687 31.2537 10.5953 32.3124 10.2759C33.8412 9.81431 35.8384 9.77281 37.1142 11.9014C37.1142 11.9014 39.6524 11.527 40.9332 11.3898C42.6824 11.2018 44.5118 11.4872 45.1581 13.4845C45.8043 15.4819 44.3139 17.0523 44.3139 17.0523L40.5967 21.1553C40.5967 21.1553 38.9594 22.8604 39.8762 23.4686C40.7011 24.0167 44.3106 24.8586 49.3495 19.823C50.3581 18.8421 51.8994 17.1141 52.5682 16.2467C53.9333 14.4756 57.658 9.67963 62.3253 11.1713C62.3253 11.1713 64.5296 11.6651 63.1653 14.2155L60.2171 19.5062C59.9917 19.911 59.818 20.3447 59.7178 20.7979C59.5625 21.4967 59.5291 22.4107 60.1645 22.9824C60.1645 22.9824 62.2611 24.9535 66.8875 20.3032L70.9295 15.9875C71.5832 15.2896 72.3747 14.7356 73.2615 14.3943C74.0396 14.0944 74.9789 13.9191 75.8915 14.2147C75.8915 14.2147 78.2686 14.5688 78.0524 18.4762V20.9114C78.0524 20.9114 77.8077 24.7705 83.2148 21.3985C83.2148 21.3985 87.0263 19.3003 91.2579 13.8488C91.2579 13.8488 93.2534 10.7088 97.6644 11.0451C98.1194 11.0798 98.5695 11.178 98.9903 11.3576C99.5839 11.6117 100.313 11.998 100.542 13.0119C100.59 13.2203 100.557 13.6548 100.238 14.2028L100.044 14.5662C99.4946 15.5979 99.0504 16.2628 98.4726 17.2784C98.0844 17.9612 97.7537 18.6227 97.2352 19.6883C96.8779 20.4227 95.805 22.4818 97.3797 23.2247C99.2884 24.1251 102.083 22.0574 103.623 20.5455L107.704 16.284C107.704 16.284 110.383 13.1152 112.746 14.0927C112.746 14.0927 115.646 14.9084 115.027 19.9373C115.027 19.9373 114.703 22.5098 116.107 22.8596C117.511 23.2094 121.461 22.6029 125.231 19.0852C128.196 16.3187 129.838 14.2138 130.405 13.4405C130.728 13 131.086 12.5858 131.482 12.2131C132.659 11.106 134.961 9.43992 137.773 9.95068C138.338 10.0532 138.841 10.3869 139.124 10.8926C139.457 11.4864 139.62 12.4359 138.917 13.8496C138.917 13.8496 146.35 20.0542 143.239 25.1737C141.135 28.6364 136.073 31.5096 131.927 31.9704C129.616 32.227 126.632 30.7718 125.951 29.3141C125.951 29.3141 125.428 28.4026 126.311 27.4878C127.497 26.2613 128.952 25.1746 128.952 25.1746C128.952 25.1746 131.386 23.4017 133.397 24.8425C133.599 24.9874 133.822 25.1 134.056 25.1771C134.655 25.3745 135.522 25.3999 135.406 23.8235C135.357 23.1442 135.136 22.4903 134.786 21.9092C134.189 20.9182 133.241 19.7154 132.194 18.8421C132.194 18.8421 118.989 33.4044 110.466 29.8003C110.466 29.8003 107.687 28.7355 107.464 24.1988C107.464 24.1988 98.961 31.7485 93.8988 31.7485C88.8365 31.7485 86.9504 28.9566 86.5755 25.4168C86.5755 25.4168 79.3507 30.6524 74.8111 30.6524C71.5957 30.6524 70.9871 28.6313 70.249 24.0768C70.249 24.0768 62.58 32.5218 55.7226 31.5045C48.8652 30.4872 49.4806 25.5379 49.4806 25.5379C49.4806 25.5379 41.7256 32.2516 34.834 31.8696C34.834 31.8696 31.0567 31.8467 29.8226 29.237C28.7263 26.9203 29.77 24.9264 31.1134 22.9807C32.8276 20.498 33.2743 20.0584 33.2743 20.0584C33.2743 20.0584 34.7613 18.4025 34.1142 17.7452C33.5273 17.1488 32.451 17.735 31.6553 18.3279C31.161 18.6964 30.7118 19.1233 30.3077 19.5909C28.4207 21.7745 18.621 32.4913 8.54406 31.8696C-2.67259 31.1775 2.65519 18.654 3.86252 16.284" fill="currentColor"/>
</symbol>


<symbol id="drawing" viewBox="0 0 1369 900" fill="none" xmlns="http://www.w3.org/2000/svg">
<path d="M0.500023 140.187C20.1887 125.156 70.3102 90.0511 87.1921 88.7805C105.9 87.3725 85.1527 137.431 67.4558 180.353C54.9582 210.664 32.0147 256.88 20.1057 282.651C8.19665 308.422 7.17252 311.986 6.98631 315.214C6.80011 318.441 7.48286 321.224 9.86817 321.649C12.2535 322.075 16.3206 320.06 57.9735 285.691C99.6263 251.323 178.742 184.663 223.87 147.867C268.998 111.071 277.742 106.159 283.613 103.258C289.485 100.358 292.22 99.6161 292.254 105.168C292.288 110.72 289.538 122.587 250.804 196.65C212.069 270.712 137.432 406.61 96.7176 482.54C42.3168 583.996 44.749 597.186 46.2999 604.171C47.5908 609.984 60.194 608.447 71.6814 606.597C77.2213 605.705 81.7775 602.985 163.619 511.201C245.461 419.417 404.348 238.16 497.459 135.473C590.57 32.7855 613.09 14.1602 626.997 3.13746C645.131 -11.2368 653.567 -15.2289 660.327 -17.9191C663.711 -19.2654 667.293 -19.7613 669.226 -16.9619C671.158 -14.1626 671.408 -7.84525 669.956 0.0819702C668.505 8.00919 665.344 17.3549 598.592 143.021C531.839 268.687 401.591 510.389 331.122 643.472C260.652 776.555 253.909 793.694 250.373 803.962C246.837 814.23 246.712 817.108 248.287 817.808C249.861 818.509 253.139 816.945 358.978 695.962C464.816 574.978 673.115 334.623 792.097 201.696C911.08 68.7693 934.433 50.5552 947.873 40.4655C961.313 30.3758 964.132 28.9626 967.005 27.9538C969.878 26.9449 972.719 26.3833 974.269 28.1257C975.818 29.8682 975.991 33.9317 974.834 39.9985C973.676 46.0654 971.184 54.0125 902.79 187.648C834.396 321.284 700.175 580.368 629.345 719.092C558.515 857.816 555.141 868.329 552.968 877.951C550.796 887.574 549.926 895.987 550.97 900.649C552.014 905.312 554.998 905.969 557.993 905.373C560.987 904.778 563.902 902.909 567.571 900.003C571.24 897.097 575.575 893.21 672.772 774.643C769.969 656.077 959.896 422.949 1065.07 295.724C1170.24 168.499 1184.9 154.242 1194.04 145.939C1203.18 137.637 1206.35 135.721 1206.73 139.388C1207.11 143.055 1204.61 152.364 1147.13 273.439C1089.65 394.514 977.278 627.073 917.176 754.075C857.074 881.076 852.651 895.473 850.271 904.449C847.892 913.426 847.69 916.546 849.568 917.808C851.446 919.071 855.411 918.38 859.958 916.147C864.506 913.914 869.516 910.159 943.726 814.214C1017.94 718.268 1161.19 530.246 1240.43 428.581C1319.68 326.916 1330.56 317.306 1338.32 310.937C1346.08 304.568 1350.39 301.73 1354.66 300.436C1358.93 299.141 1363.03 299.475 1365.46 301.57C1367.88 303.666 1368.5 307.513 1368.82 312.286C1369.14 317.06 1369.15 322.643 1342.06 400.561C1314.98 478.48 1260.79 628.565 1232.55 707.701C1204.32 786.836 1203.67 790.474 1206.04 792.434C1213.83 794.567 1237.91 787.216 1268.38 775.192C1280.36 770.697 1285.27 769.464 1290.33 768.193" stroke="black" stroke-linecap="round"/>
</symbol>



</svg>