<svg width="500" height="570" viewBox="0 0 500 570" fill="none" xmlns="http://www.w3.org/2000/svg">
<path d="M499.796 420.805C498.951 430.062 492.958 439.923 484.19 444.048C477.372 446.664 469.891 448.093 462.772 449.904C442.037 454.352 420.76 450.589 400.045 447.771C380.176 445.356 361.05 438.897 341.019 437.488C335.167 436.864 329.918 441.493 331.326 447.53C331.788 449.723 333.156 451.836 334.624 453.647C340.376 461.274 347.616 467.191 354.594 473.55C369.859 488.321 382.669 505.225 396.807 520.982C405.234 532.292 411.911 549.9 403.846 562.74C400.407 567.006 394.213 568.716 388.361 569.622C363.544 572.238 340.014 560.707 317.349 552.637C306.63 549.055 296.775 543.843 286.981 538.249C220.896 502.106 161.468 455.338 106.806 403.7C92.3665 389.492 78.1078 374.701 65.3775 358.843C59.485 351.055 54.8796 342.261 49.4094 334.171C45.2061 327.852 39.6354 322.52 34.8892 316.623C33.2602 314.369 32.0535 311.814 30.7664 309.358C27.8101 303.382 23.265 298.612 20.0875 292.817C13.1894 281.265 8.92583 268.205 4.66229 255.708C2.02775 248.222 -0.405688 240.434 0.0568654 232.404C0.157421 219.143 -1.71291 203.506 16.9099 205.237C30.8268 208.356 42.9537 223.671 52.3053 233.773C56.4884 237.878 60.5106 241.661 63.9697 246.612C67.992 251.281 71.6522 256.473 75.4532 261.222C78.4296 264.744 82.311 267.48 85.2271 271.224C88.6862 275.651 91.4615 280.722 95.524 284.727C102.321 292.173 108.134 300.081 115.032 307.326C122.392 316.583 130.799 324.854 140.13 332.159C144.052 335.822 147.571 339.987 151.795 343.428C157.969 348.52 164.746 352.867 170.337 358.662C175.465 364.498 182.223 368.282 188.719 372.367C194.852 376.21 200.162 381.201 206.658 384.3C209.533 385.729 212.47 387.077 215.305 388.587C226.668 394.865 240.102 401.707 253.476 398.347C257.478 397.019 260.555 394.221 261.199 390.458C261.882 386.353 258.262 382.851 255.306 379.229C252.109 375.083 247.845 372.025 243.32 369.469C223.39 357.837 205.592 342.945 187.431 328.637C161.689 309.097 137.415 287.765 116.057 263.476C84.0607 227.796 56.0661 187.971 37.6645 143.537C28.695 122.346 25.0549 99.4855 23.2851 76.6649C22.6416 67.7097 27.428 48.6121 39.0522 59.6601C45.8296 68.4342 48.5647 79.5225 55.0002 88.6387C59.8872 96.3059 64.3116 104.939 71.1293 111.037C74.9504 113.653 78.0274 110.171 78.5301 105.885C79.1134 97.8555 77.2631 89.5442 76.8006 81.5148C74.6889 57.4465 75.8956 28.4881 90.3755 8.26349C97.3943 -0.711802 111.17 -1.77837 121.246 2.20618C131.925 9.79292 141.88 19.4323 147.511 31.3256C149.985 36.095 153.866 40.1198 156.621 44.8288C160.503 50.8458 163.037 57.7685 166.214 64.0673C173.293 75.4575 180.433 87.0891 189.221 97.4328C194.229 102.826 198.01 108.984 202.535 114.739C210.921 124.781 218.966 135.206 229.081 143.758C232.842 146.938 236.563 150.117 240.022 153.619C246.94 160.582 253.295 168.149 260.455 174.87C265.683 179.579 271.858 183.06 276.342 188.554C284.588 197.59 293.075 206.143 298.585 216.969C300.576 222.342 301.903 228.058 304.739 233.089C309.184 241.682 306.247 251.884 300.536 259.129C297.016 263.275 291.788 265.79 287.283 268.829C283.019 271.244 277.951 270.922 273.125 271.264C268.74 271.505 264.376 271.888 259.972 271.888C244.788 271.505 230.208 265.83 216.753 259.21C209.976 255.869 202.676 253.374 196.481 248.866C184.596 240.655 173.313 231.418 161.75 222.805C157.164 219.746 147.431 210.127 143.69 218.177C141.417 227.273 154.771 241.802 160.141 248.805C194.792 288.168 243.461 313.142 292.974 328.416C314.051 333.205 335.167 338.76 356.445 342.442C377.26 345.501 397.773 350.069 418.306 354.637C432.384 358.803 445.255 365.404 458.951 370.314C471.057 375.667 482.259 383.415 491.43 393.094C498.026 400.52 500.621 410.683 499.877 420.483L499.836 420.865L499.796 420.805Z" fill="#A0325A"/>
</svg>
