<svg width="540" height="423" viewBox="0 0 540 423" fill="none" xmlns="http://www.w3.org/2000/svg">
<path d="M538.711 197.043L538.677 197.178C538.017 199.631 536.832 201.899 535.901 204.267C535.021 206.568 534.886 209.191 534.073 211.593C533.278 214.08 532.11 216.432 530.841 218.716C527.219 224.892 523.986 231.355 519.67 237.107C517.842 239.594 515.557 241.76 513.644 244.128C511.952 246.243 510.479 248.544 508.787 250.676C496.584 265.412 484.093 279.861 469.012 291.722C466.135 294.259 463.461 297.034 460.668 299.673C455.811 304.157 450.124 307.795 444.589 311.415C441.78 313.09 438.716 314.325 436.025 316.22C432.301 318.961 428.29 321.211 424.211 323.36C420.284 325.695 415.918 327.184 411.703 328.791C407.032 330.686 402.293 332.818 397.317 334.053C392.916 335.186 388.363 335.356 383.878 335.609C381.305 335.812 378.8 334.865 376.346 334.493C373.114 334.357 370.05 334.29 366.936 333.173C364.295 332.412 361.943 330.754 359.438 329.586C353.311 326.524 347.878 322.26 342.597 317.98C338.078 313.987 333.508 309.723 327.72 307.744C322.338 306.153 317.226 303.666 311.709 302.55C309.694 302.161 307.697 301.771 305.683 301.45C301.35 300.689 297.017 300.993 292.701 301.399C290.907 301.535 289.079 301.348 287.37 301.687C286.151 301.907 285.017 302.448 283.883 302.956C278.4 305.341 272.442 306.61 267.347 309.859C260.493 313.902 254.01 318.504 247.138 322.514C243.804 324.426 241.028 327.15 237.796 329.18C232.447 332.513 226.93 335.694 222.106 339.771C220.024 341.633 217.672 343.071 215.42 344.729C209.446 349.432 203.64 354.406 197.48 358.873C191.031 363.424 184.075 367.197 177.186 371.038C174.038 372.78 171.178 374.912 168.317 377.078C161.666 382.018 154.269 385.52 147.347 389.852C144.876 391.357 142.489 392.999 140.001 394.437C135.381 396.89 130.675 399.089 126.427 402.135C122.01 404.926 116.932 406.449 112.498 409.207C111.076 410.07 109.688 410.933 108.148 411.593C106.828 412.151 105.406 412.608 104.018 413.031C96.4525 415.416 89.4792 418.986 81.6428 420.306C77.8854 421.355 74.0772 422.268 70.1336 422.235C65.9531 422.302 61.8233 423.267 57.6427 422.928C52.8021 422.37 48.0461 421.067 43.2731 420.187C42.3253 419.984 41.3775 419.747 40.4635 419.426C35.3859 417.345 30.3422 414.739 26.2463 411.085C20.6271 406.06 17.0728 399.039 15.5156 391.73C14.3139 386.654 13.2646 381.358 13.0445 376.13C12.5029 366.774 14.8048 357.57 17.1235 348.586C18.5622 342.851 20.1532 337.2 22.7258 331.87C24.486 327.387 25.8739 322.717 27.7188 318.25C28.7004 315.966 30.0375 313.818 31.0192 311.534C33.2026 306.34 35.0813 301.027 37.3662 295.884C42.0207 285.292 48.52 275.581 53.3775 265.074C54.8162 261.978 56.5595 259.102 58.4213 256.259C60.1477 253.502 61.197 250.355 62.5003 247.428C63.5497 245.144 64.9714 243.063 65.8684 240.66C66.3254 239.493 66.7824 238.325 67.324 237.192C70.0659 231.896 72.8247 226.465 73.9756 220.56C75.4989 215.789 73.2309 210.087 67.8656 209.631C65.6653 209.411 63.3466 209.969 61.1801 210.223C51.4819 210.764 42.7146 215.552 33.3549 217.532C30.2745 218.225 27.2787 219.291 24.2491 220.171C21.0841 221.068 17.7498 221.288 14.4493 221.457C2.88935 221.44 -0.71574 211.542 0.1136 201.323C0.299778 198.532 0.909089 195.842 1.89076 193.236C4.22645 186.316 6.39289 179.295 9.4733 172.646C11.1658 168.72 14.0939 165.472 16.1419 161.801C17.1912 159.973 17.9867 158.028 18.9007 156.15C20.3055 153.206 22.4212 150.634 24.0291 147.775C24.7907 146.455 25.5354 145.118 26.3817 143.85C27.9388 141.565 29.9021 139.586 31.3408 137.2C32.3394 135.61 33.2195 133.935 34.4043 132.48C35.5213 131.11 37.0277 130.061 38.1278 128.673C39.1772 127.421 39.9388 125.915 41.0051 124.63C41.7499 123.716 42.5961 122.904 43.4255 122.075C46.4889 119.199 49.1124 115.899 52.1928 113.006C54.63 110.333 57.7781 108.607 60.5708 106.374C65.4791 101.958 70.2013 97.2885 76.0575 94.1077C81.1858 90.91 86.6019 88.3045 91.9842 85.5975C99.042 81.6553 107.014 79.3544 114.732 77.8824C122.247 76.1736 130.574 77.2395 135.939 83.3811C139.24 87.154 140.915 92.2466 142.235 97.1024C142.777 100.858 142.625 104.31 145.841 106.949C148.125 109.03 150.986 110.604 154.117 110.858C156.944 111.179 159.922 111.331 162.597 110.57C165.592 109.775 168.351 108.32 171.245 107.237C176.458 105.24 181.908 103.633 187.054 101.4C188.408 100.74 189.609 99.8094 190.862 98.9635C193.756 97.1024 197.124 96.0365 199.798 93.8201C204.301 90.4532 209.48 87.9154 214.1 84.7515C226.05 75.3446 238.337 66.3098 250.76 57.5289C262.473 48.8156 273.779 39.4594 286.49 32.2011C296.442 25.9073 306.292 19.4273 317.311 15.113C320.747 13.6918 324.098 12.0506 327.297 10.1726C332.425 7.65169 338.146 6.0613 343.68 4.57243C349.029 3.4727 354.377 2.37296 359.726 1.22247C367.951 -0.181806 376.431 -0.469429 384.657 0.850252C392.155 1.64544 396.572 3.86183 401.853 9.24207C403.799 10.9678 404.95 13.3195 405.796 15.739C407.607 19.9856 409.181 24.4184 408.047 29.0373C407.421 32.0489 407.573 35.1281 407.032 38.1735C405.864 43.6891 404.544 49.2386 402.462 54.4665C400.702 58.4932 399.483 62.8245 397.147 66.5467C395.353 69.0338 394.186 71.8762 392.848 74.5832C391.308 76.7996 389.193 78.7622 387.991 81.2662C386.163 84.5992 383.76 87.4924 381.593 90.6393C379.241 94.0231 377.193 97.5761 374.468 100.672C373.334 102.009 372.149 103.329 371.083 104.733C369.559 106.865 368.358 109.149 366.563 111.044C364.363 113.7 362.129 116.356 359.726 118.793C357.915 121.06 356.273 123.547 354.31 125.712C351.009 130.044 347.658 134.324 344.814 138.977C341.328 144.391 337.181 149.551 334.71 155.574C333.356 158.654 332.425 161.953 331.748 165.286C330.902 168.687 329.988 172.324 331.443 175.691C332.594 178.753 334.541 181.782 337.757 182.848C346.524 185.826 355.799 183.592 364.566 181.934C367.714 181.325 370.93 181.19 374.028 180.242C376.532 179.532 378.936 178.432 381.525 178.06C382.524 177.907 383.54 177.84 384.555 177.671C386.891 177.366 389.091 176.199 391.41 175.674C397.097 174.693 402.665 173.255 408.234 171.732C416.205 170.26 424.143 167.824 431.946 165.929C438.598 164.322 445.249 162.68 451.969 161.378C456.725 160.447 461.345 159.043 466.118 158.18C469.419 157.605 472.837 157.402 476.121 156.945C482.739 155.744 489.475 154.525 496.279 155.168C504.217 155.794 512.527 155.168 519.873 158.721C523.292 160.396 526.948 161.817 529.893 164.288C531.687 165.777 533.193 167.57 534.581 169.448C537.289 172.866 539.049 176.994 539.54 181.342C540.285 186.587 540.2 191.899 538.728 197.009L538.711 197.043Z" fill="#2D7864"/>
</svg>
