<svg width="1369" height="900" viewBox="0 0 1369 900" fill="none" xmlns="http://www.w3.org/2000/svg">
<path d="M0.500023 140.187C20.1887 125.156 70.3102 90.0511 87.1921 88.7805C105.9 87.3725 85.1527 137.431 67.4558 180.353C54.9582 210.664 32.0147 256.88 20.1057 282.651C8.19665 308.422 7.17252 311.986 6.98631 315.214C6.80011 318.441 7.48286 321.224 9.86817 321.649C12.2535 322.075 16.3206 320.06 57.9735 285.691C99.6263 251.323 178.742 184.663 223.87 147.867C268.998 111.071 277.742 106.159 283.613 103.258C289.485 100.358 292.22 99.6161 292.254 105.168C292.288 110.72 289.538 122.587 250.804 196.65C212.069 270.712 137.432 406.61 96.7176 482.54C42.3168 583.996 44.749 597.186 46.2999 604.171C47.5908 609.984 60.194 608.447 71.6814 606.597C77.2213 605.705 81.7775 602.985 163.619 511.201C245.461 419.417 404.348 238.16 497.459 135.473C590.57 32.7855 613.09 14.1602 626.997 3.13746C645.131 -11.2368 653.567 -15.2289 660.327 -17.9191C663.711 -19.2654 667.293 -19.7613 669.226 -16.9619C671.158 -14.1626 671.408 -7.84525 669.956 0.0819702C668.505 8.00919 665.344 17.3549 598.592 143.021C531.839 268.687 401.591 510.389 331.122 643.472C260.652 776.555 253.909 793.694 250.373 803.962C246.837 814.23 246.712 817.108 248.287 817.808C249.861 818.509 253.139 816.945 358.978 695.962C464.816 574.978 673.115 334.623 792.097 201.696C911.08 68.7693 934.433 50.5552 947.873 40.4655C961.313 30.3758 964.132 28.9626 967.005 27.9538C969.878 26.9449 972.719 26.3833 974.269 28.1257C975.818 29.8682 975.991 33.9317 974.834 39.9985C973.676 46.0654 971.184 54.0125 902.79 187.648C834.396 321.284 700.175 580.368 629.345 719.092C558.515 857.816 555.141 868.329 552.968 877.951C550.796 887.574 549.926 895.987 550.97 900.649C552.014 905.312 554.998 905.969 557.993 905.373C560.987 904.778 563.902 902.909 567.571 900.003C571.24 897.097 575.575 893.21 672.772 774.643C769.969 656.077 959.896 422.949 1065.07 295.724C1170.24 168.499 1184.9 154.242 1194.04 145.939C1203.18 137.637 1206.35 135.721 1206.73 139.388C1207.11 143.055 1204.61 152.364 1147.13 273.439C1089.65 394.514 977.278 627.073 917.176 754.075C857.074 881.076 852.651 895.473 850.271 904.449C847.892 913.426 847.69 916.546 849.568 917.808C851.446 919.071 855.411 918.38 859.958 916.147C864.506 913.914 869.516 910.159 943.726 814.214C1017.94 718.268 1161.19 530.246 1240.43 428.581C1319.68 326.916 1330.56 317.306 1338.32 310.937C1346.08 304.568 1350.39 301.73 1354.66 300.436C1358.93 299.141 1363.03 299.475 1365.46 301.57C1367.88 303.666 1368.5 307.513 1368.82 312.286C1369.14 317.06 1369.15 322.643 1342.06 400.561C1314.98 478.48 1260.79 628.565 1232.55 707.701C1204.32 786.836 1203.67 790.474 1206.04 792.434C1213.83 794.567 1237.91 787.216 1268.38 775.192C1280.36 770.697 1285.27 769.464 1290.33 768.193" stroke="black" stroke-linecap="round"/>
</svg>
